<svg width="240" height="240" viewBox="0 0 240 240" fill="none" xmlns="http://www.w3.org/2000/svg">
<path d="M79.9844 24C49.1124 24 24 49.1356 24 80.0156V160.016C24 190.888 49.1356 216 80.0156 216H160.016C190.888 216 216 190.864 216 159.984V79.9844C216 49.1124 190.864 24 159.984 24H79.9844ZM176 56C180.416 56 184 59.584 184 64C184 68.416 180.416 72 176 72C171.584 72 168 68.416 168 64C168 59.584 171.584 56 176 56ZM120 72C146.472 72 168 93.528 168 120C168 146.472 146.472 168 120 168C93.528 168 72 146.472 72 120C72 93.528 93.528 72 120 72ZM120 88C111.513 88 103.374 91.3714 97.3726 97.3726C91.3714 103.374 88 111.513 88 120C88 128.487 91.3714 136.626 97.3726 142.627C103.374 148.629 111.513 152 120 152C128.487 152 136.626 148.629 142.627 142.627C148.629 136.626 152 128.487 152 120C152 111.513 148.629 103.374 142.627 97.3726C136.626 91.3714 128.487 88 120 88V88Z" fill="white"/>
</svg>
