<svg width="1440" height="1024" viewBox="0 0 1440 1024" fill="none" xmlns="http://www.w3.org/2000/svg">
<g filter="url(#filter0_f_157_4657)">
<path d="M760.007 545.05L764.079 547.445C791.389 563.256 808.398 592.483 808.398 624.104C808.398 672.975 768.631 712.502 720 712.502C671.37 712.502 631.603 672.735 631.603 624.105C631.603 592.722 648.612 563.256 675.921 547.445L679.994 545.05L714.011 604.221C715.209 606.377 717.605 607.575 720 607.575C722.396 607.575 724.792 606.377 725.989 604.221L760.007 545.05ZM720 617.157C714.011 617.157 708.741 614.043 705.627 609.012L676.401 558.465C654.361 573.078 640.946 597.753 640.946 624.344C640.946 667.944 676.401 703.159 719.761 703.159C763.121 703.159 798.576 667.704 798.576 624.344C798.576 597.992 785.161 573.078 763.121 558.465L733.895 609.012C731.26 614.043 725.989 617.157 720 617.157Z" fill="#3EB5F1"/>
<path d="M849.602 311C898.472 311 937.999 350.767 938 399.397C938 448.268 898.233 487.795 849.602 487.795C834.031 487.795 818.938 483.722 805.283 475.817L801.211 473.421L835.228 414.49C836.426 412.334 836.426 409.699 835.228 407.542C834.031 405.386 831.635 404.189 829.239 404.189L760.965 404.189L760.965 399.397C760.965 350.767 800.732 311 849.602 311ZM849.602 478.452C893.202 478.452 928.417 442.997 928.417 399.637C928.417 356.277 892.962 320.822 849.602 320.822C807.679 320.822 773.422 353.642 770.787 394.846L829.239 394.846C835.228 394.846 840.499 397.96 843.613 402.991C846.488 408.261 846.488 414.25 843.613 419.52L814.387 470.068C825.167 475.577 837.384 478.452 849.602 478.452Z" fill="#3EB5F1"/>
<path d="M590.399 311C639.269 311 678.796 350.767 678.796 399.398L678.796 404.189L610.522 404.189C608.126 404.189 605.73 405.387 604.533 407.543C603.335 409.699 603.335 412.334 604.533 414.49L638.79 473.661L634.717 476.057C621.302 483.962 605.97 488.035 590.399 488.035C541.529 488.035 502.001 448.268 502.001 399.637C501.762 350.767 541.529 311 590.399 311ZM669.214 394.846C666.818 353.642 632.322 320.822 590.399 320.822C546.799 320.822 511.583 356.277 511.584 399.637C511.584 442.997 546.799 478.452 590.399 478.452C602.616 478.452 614.594 475.578 625.614 470.068L596.388 419.521C593.513 414.25 593.513 408.261 596.388 402.991C599.262 397.721 604.772 394.846 610.761 394.846L669.214 394.846Z" fill="#3EB5F1"/>
</g>
<g filter="url(#filter1_d_157_4657)">
<path d="M760.007 545.05L764.079 547.445C791.389 563.256 808.398 592.483 808.398 624.104C808.398 672.975 768.631 712.502 720 712.502C671.37 712.502 631.603 672.735 631.603 624.105C631.603 592.722 648.612 563.256 675.921 547.445L679.994 545.05L714.011 604.221C715.209 606.377 717.605 607.575 720 607.575C722.396 607.575 724.792 606.377 725.989 604.221L760.007 545.05ZM720 617.157C714.011 617.157 708.741 614.043 705.627 609.012L676.401 558.465C654.361 573.078 640.946 597.753 640.946 624.344C640.946 667.944 676.401 703.159 719.761 703.159C763.121 703.159 798.576 667.704 798.576 624.344C798.576 597.992 785.161 573.078 763.121 558.465L733.895 609.012C731.26 614.043 725.989 617.157 720 617.157Z" fill="#3EB5F1"/>
<path d="M849.602 311C898.472 311 937.999 350.767 938 399.397C938 448.268 898.233 487.795 849.602 487.795C834.031 487.795 818.938 483.722 805.283 475.817L801.211 473.421L835.228 414.49C836.426 412.334 836.426 409.699 835.228 407.542C834.031 405.386 831.635 404.189 829.239 404.189L760.965 404.189L760.965 399.397C760.965 350.767 800.732 311 849.602 311ZM849.602 478.452C893.202 478.452 928.417 442.997 928.417 399.637C928.417 356.277 892.962 320.822 849.602 320.822C807.679 320.822 773.422 353.642 770.787 394.846L829.239 394.846C835.228 394.846 840.499 397.96 843.613 402.991C846.488 408.261 846.488 414.25 843.613 419.52L814.387 470.068C825.167 475.577 837.384 478.452 849.602 478.452Z" fill="#3EB5F1"/>
<path d="M590.399 311C639.269 311 678.796 350.767 678.796 399.398L678.796 404.189L610.522 404.189C608.126 404.189 605.73 405.387 604.533 407.543C603.335 409.699 603.335 412.334 604.533 414.49L638.79 473.661L634.717 476.057C621.302 483.962 605.97 488.035 590.399 488.035C541.529 488.035 502.001 448.268 502.001 399.637C501.762 350.767 541.529 311 590.399 311ZM669.214 394.846C666.818 353.642 632.322 320.822 590.399 320.822C546.799 320.822 511.583 356.277 511.584 399.637C511.584 442.997 546.799 478.452 590.399 478.452C602.616 478.452 614.594 475.578 625.614 470.068L596.388 419.521C593.513 414.25 593.513 408.261 596.388 402.991C599.262 397.721 604.772 394.846 610.761 394.846L669.214 394.846Z" fill="#3EB5F1"/>
</g>
<defs>
<filter id="filter0_f_157_4657" x="477" y="286" width="486" height="451.502" filterUnits="userSpaceOnUse" color-interpolation-filters="sRGB">
<feFlood flood-opacity="0" result="BackgroundImageFix"/>
<feBlend mode="normal" in="SourceGraphic" in2="BackgroundImageFix" result="shape"/>
<feGaussianBlur stdDeviation="12.5" result="effect1_foregroundBlur_157_4657"/>
</filter>
<filter id="filter1_d_157_4657" x="472" y="281" width="496" height="461.502" filterUnits="userSpaceOnUse" color-interpolation-filters="sRGB">
<feFlood flood-opacity="0" result="BackgroundImageFix"/>
<feColorMatrix in="SourceAlpha" type="matrix" values="0 0 0 0 0 0 0 0 0 0 0 0 0 0 0 0 0 0 127 0" result="hardAlpha"/>
<feOffset/>
<feGaussianBlur stdDeviation="15"/>
<feComposite in2="hardAlpha" operator="out"/>
<feColorMatrix type="matrix" values="0 0 0 0 0.243137 0 0 0 0 0.709804 0 0 0 0 0.945098 0 0 0 1 0"/>
<feBlend mode="normal" in2="BackgroundImageFix" result="effect1_dropShadow_157_4657"/>
<feBlend mode="normal" in="SourceGraphic" in2="effect1_dropShadow_157_4657" result="shape"/>
</filter>
</defs>
</svg>
