<svg width="1631" height="176" viewBox="0 0 1631 176" fill="none" xmlns="http://www.w3.org/2000/svg">
<path d="M171.12 3.15184V172.814H129.913V60.8388L87.4936 125.554H83.619L41.1997 60.8388V172.814H0V3.15184H46.7773L85.56 61.3222L124.335 3.15184H171.12Z" fill="white"/>
<path d="M280.231 42.4127V67.6234H349.066V106.889H280.231V133.55H355.856V172.816H239.024V3.15404H355.856V42.4127H280.231Z" fill="white"/>
<path d="M537.911 42.4127H491.617V172.816H450.41V42.4127H404.361V3.15404H537.911V42.4127Z" fill="white"/>
<path d="M670.284 98.4063L652.101 45.5681L633.926 98.4063H670.284ZM683.856 137.672H620.354L608.232 172.819H564.608L626.169 3.14878H678.041L739.602 172.819H695.978L683.856 137.672Z" fill="white"/>
<path d="M1068.33 79.0156V172.816H1033.18V149.063C1025.67 164.085 1006.52 175.969 979.861 175.969C933.076 175.969 895.996 139.365 895.996 88.4678C895.996 37.5705 933.076 -1.2798e-06 983.98 -1.2798e-06C1025.67 -1.2798e-06 1057.42 25.2106 1066.63 60.8402H1022.52C1015.74 47.2606 1001.92 39.2587 983.98 39.2587C955.862 39.2587 937.687 59.1372 937.687 88.9511C937.687 116.095 952.709 137.915 983.006 137.915C1001.67 137.915 1017.67 129.675 1024.46 113.433H974.038V79.0156H1068.33Z" fill="white"/>
<path d="M1227.37 98.4063L1209.19 45.5681L1191.02 98.4063H1227.37ZM1240.95 137.672H1177.44L1165.32 172.819H1121.7L1183.26 3.14878H1235.13L1296.69 172.819H1253.07L1240.95 137.672Z" fill="white"/>
<path d="M1456.94 42.4127H1410.65V172.816H1369.44V42.4127H1323.39V3.15404H1456.94V42.4127Z" fill="white"/>
<path d="M1555.14 42.4127V67.6234H1623.97V106.889H1555.14V133.55H1630.76V172.816H1513.93V3.15404H1630.76V42.4127H1555.14Z" fill="white"/>
</svg>
