<svg width="240" height="240" viewBox="0 0 240 240" fill="none" xmlns="http://www.w3.org/2000/svg">
<path d="M197 104.348C195.67 104.471 194.331 104.553 192.981 104.553C177.691 104.553 164.253 96.6812 156.429 84.7605C156.429 116.013 156.429 151.58 156.429 152.175C156.429 179.696 134.164 202 106.714 202C79.2646 201.99 57 179.676 57 152.165C57 124.643 79.2646 102.339 106.714 102.339C107.758 102.339 108.77 102.432 109.783 102.493V127.052C108.76 126.929 107.768 126.745 106.714 126.745C92.7031 126.745 81.3407 138.132 81.3407 152.175C81.3407 166.217 92.6929 177.605 106.714 177.605C120.736 177.605 133.111 166.535 133.111 152.493C133.111 151.929 133.356 38 133.356 38H156.766C158.965 58.9817 175.871 75.5458 197 77.0628V104.348Z" fill="white"/>
</svg>
