<svg width="240" height="240" viewBox="0 0 240 240" fill="none" xmlns="http://www.w3.org/2000/svg">
<path d="M224 55.496C216.344 58.896 208.12 61.184 199.488 62.216C208.304 56.936 215.064 48.576 218.248 38.608C210.008 43.496 200.872 47.048 191.144 48.968C183.36 40.672 172.272 35.488 160 35.488C136.432 35.488 117.328 54.6 117.328 78.16C117.328 81.504 117.712 84.768 118.432 87.88C82.9682 86.104 51.5282 69.112 30.4722 43.288C26.8082 49.592 24.7042 56.92 24.7042 64.752C24.7042 79.552 32.2322 92.616 43.6802 100.264C36.6882 100.04 30.1042 98.12 24.3522 94.928C24.3522 95.112 24.3522 95.28 24.3522 95.464C24.3522 116.144 39.0562 133.392 58.5842 137.304C55.0082 138.28 51.2322 138.8 47.3362 138.8C44.5922 138.8 41.9122 138.528 39.3122 138.04C44.7442 154.992 60.5042 167.336 79.1762 167.68C64.5762 179.128 46.1762 185.952 26.1762 185.952C22.7362 185.952 19.3362 185.752 15.9922 185.352C34.8802 197.456 57.3042 204.52 81.4082 204.52C159.904 204.52 202.816 139.496 202.816 83.104C202.816 81.256 202.776 79.416 202.696 77.584C211.04 71.56 218.28 64.048 224 55.496Z" fill="white"/>
</svg>
