<?xml version="1.0" encoding="utf-8"?>
<!-- Generator: Adobe Illustrator 25.2.1, SVG Export Plug-In . SVG Version: 6.00 Build 0)  -->
<svg version="1.1" id="Слой_1" xmlns="http://www.w3.org/2000/svg" xmlns:xlink="http://www.w3.org/1999/xlink" x="0px" y="0px"
	 viewBox="0 0 653 655" style="enable-background:new 0 0 653 655;" xml:space="preserve">
<style type="text/css">
	.st0{fill:#FFFFFF;}
	.st1{font-family:'ArialMT';}
	.st2{font-size:272px;}
	.st3{letter-spacing:27;}
</style>
<g>
	<path class="st0" d="M328,637.5c-82.7,0-160.4-32.2-218.8-90.7C50.7,488.4,18.5,410.7,18.5,328c0-82.7,32.2-160.4,90.7-218.8
		C167.6,50.7,245.3,18.5,328,18.5c82.7,0,160.4,32.2,218.8,90.7c58.5,58.5,90.7,136.2,90.7,218.8c0,82.7-32.2,160.4-90.7,218.8
		S410.7,637.5,328,637.5z"/>
	<path class="st0" d="M328,29c40.4,0,79.5,7.9,116.4,23.5c35.6,15.1,67.6,36.6,95,64.1c27.5,27.5,49,59.4,64.1,95
		c15.6,36.8,23.5,76,23.5,116.4s-7.9,79.5-23.5,116.4c-15.1,35.6-36.6,67.6-64.1,95c-27.5,27.5-59.4,49-95,64.1
		c-36.8,15.6-76,23.5-116.4,23.5s-79.5-7.9-116.4-23.5c-35.6-15.1-67.6-36.6-95-64.1c-27.5-27.5-49-59.4-64.1-95
		C36.9,407.5,29,368.4,29,328s7.9-79.5,23.5-116.4c15.1-35.6,36.6-67.6,64.1-95s59.4-49,95-64.1C248.5,36.9,287.6,29,328,29 M328,8
		C151.3,8,8,151.3,8,328s143.3,320,320,320s320-143.3,320-320S504.7,8,328,8L328,8z"/>
</g>
<text transform="matrix(1 0 0 1 145.6362 428.6885)" class="st0 st1 st2 st3">YT</text>
</svg>
